HIERARCHY
ROOT Model
{
	OFFSET 0 0 0
	CHANNELS 6 Xposition Yposition Zposition Zrotation Xrotation Yrotation
	JOINT Model1
	{
		OFFSET 0 -2.25479 2.99383
		CHANNELS 3 Zrotation Xrotation Yrotation
		JOINT Model2
		{
			OFFSET 12.111 0 0
			CHANNELS 3 Zrotation Xrotation Yrotation
			JOINT Model3
			{
				OFFSET 11.5502 0 0
				CHANNELS 3 Zrotation Xrotation Yrotation
				JOINT Model4
				{
					OFFSET 11.781 0 0
					CHANNELS 3 Zrotation Xrotation Yrotation
					JOINT Model5
					{
						OFFSET 20.0601 0 0
						CHANNELS 3 Zrotation Xrotation Yrotation
						JOINT Model6
						{
							OFFSET 11.1962 0 0
							CHANNELS 3 Zrotation Xrotation Yrotation
							End Site
							{
								OFFSET 0 0 0
							}
						}
					}
					JOINT Model7
					{
						OFFSET 10.8223 0.417538 3.51114
						CHANNELS 3 Zrotation Xrotation Yrotation
						JOINT Model8
						{
							OFFSET -6.07943 0 0
							CHANNELS 3 Zrotation Xrotation Yrotation
							JOINT Model9
							{
								OFFSET -0.277412 10.39 -0.0512428
								CHANNELS 3 Zrotation Xrotation Yrotation
								JOINT Model10
								{
									OFFSET -3.4391 -0.282043 1.86678
									CHANNELS 3 Zrotation Xrotation Yrotation
									JOINT Model11
									{
										OFFSET 13.0269 0 0
										CHANNELS 3 Zrotation Xrotation Yrotation
										JOINT Model12
										{
											OFFSET 10.8866 0 0
											CHANNELS 3 Zrotation Xrotation Yrotation
											JOINT Model13
											{
												OFFSET 16.7317 0 0
												CHANNELS 3 Zrotation Xrotation Yrotation
												JOINT Model14
												{
													OFFSET 11.8292 0 0
													CHANNELS 3 Zrotation Xrotation Yrotation
													JOINT Model15
													{
														OFFSET 4.82751 -3.73566 -0.836517
														CHANNELS 3 Zrotation Xrotation Yrotation
														JOINT Model16
														{
															OFFSET 3.75311 -0.0582924 -0.0186462
															CHANNELS 3 Zrotation Xrotation Yrotation
															JOINT Model17
															{
																OFFSET 2.88689 0.0192337 0.014801
																CHANNELS 3 Zrotation Xrotation Yrotation
																End Site
																{
																	OFFSET 0 0 0
																}
															}
														}
													}
													JOINT Model18
													{
														OFFSET 9.72198 -3.06458 0.238766
														CHANNELS 3 Zrotation Xrotation Yrotation
														JOINT Model19
														{
															OFFSET 4.61131 0 0
															CHANNELS 3 Zrotation Xrotation Yrotation
															JOINT Model20
															{
																OFFSET 2.8969 -1.14441e-005 0
																CHANNELS 3 Zrotation Xrotation Yrotation
																End Site
																{
																	OFFSET 0 0 0
																}
															}
														}
													}
													JOINT Model21
													{
														OFFSET 9.5443 -0.745064 0.588936
														CHANNELS 3 Zrotation Xrotation Yrotation
														JOINT Model22
														{
															OFFSET 5.33978 0 0
															CHANNELS 3 Zrotation Xrotation Yrotation
															JOINT Model23
															{
																OFFSET 3.03619 1.14441e-005 0
																CHANNELS 3 Zrotation Xrotation Yrotation
																End Site
																{
																	OFFSET 0 0 0
																}
															}
														}
													}
													JOINT Model24
													{
														OFFSET 9.47759 1.51286 0.485119
														CHANNELS 3 Zrotation Xrotation Yrotation
														JOINT Model25
														{
															OFFSET 4.96136 1.14441e-005 0
															CHANNELS 3 Zrotation Xrotation Yrotation
															JOINT Model26
															{
																OFFSET 2.51965 0 0
																CHANNELS 3 Zrotation Xrotation Yrotation
																End Site
																{
																	OFFSET 0 0 0
																}
															}
														}
													}
													JOINT Model27
													{
														OFFSET 9.34248 3.34117 -0.239281
														CHANNELS 3 Zrotation Xrotation Yrotation
														JOINT Model28
														{
															OFFSET 3.28259 2.67029e-005 0
															CHANNELS 3 Zrotation Xrotation Yrotation
															JOINT Model29
															{
																OFFSET 2.1292 0 0
																CHANNELS 3 Zrotation Xrotation Yrotation
																End Site
																{
																	OFFSET 0 0 0
																}
															}
														}
													}
												}
											}
										}
									}
								}
							}
						}
					}
					JOINT Model30
					{
						OFFSET 10.8223 0.417904 -3.51107
						CHANNELS 3 Zrotation Xrotation Yrotation
						JOINT Model31
						{
							OFFSET 6.07943 0 0
							CHANNELS 3 Zrotation Xrotation Yrotation
							JOINT Model32
							{
								OFFSET 0.277412 -10.39 0.0512428
								CHANNELS 3 Zrotation Xrotation Yrotation
								JOINT Model33
								{
									OFFSET 3.4391 0.282043 -1.86678
									CHANNELS 3 Zrotation Xrotation Yrotation
									JOINT Model34
									{
										OFFSET -13.0269 0 0
										CHANNELS 3 Zrotation Xrotation Yrotation
										JOINT Model35
										{
											OFFSET -10.8866 0 0
											CHANNELS 3 Zrotation Xrotation Yrotation
											JOINT Model36
											{
												OFFSET -16.7317 0 0
												CHANNELS 3 Zrotation Xrotation Yrotation
												JOINT Model37
												{
													OFFSET -11.8292 0 0
													CHANNELS 3 Zrotation Xrotation Yrotation
													JOINT Model38
													{
														OFFSET -4.82751 3.73566 0.836517
														CHANNELS 3 Zrotation Xrotation Yrotation
														JOINT Model39
														{
															OFFSET -3.75311 0.0582848 0.0186424
															CHANNELS 3 Zrotation Xrotation Yrotation
															JOINT Model40
															{
																OFFSET -2.88688 -0.0192375 -0.014801
																CHANNELS 3 Zrotation Xrotation Yrotation
																End Site
																{
																	OFFSET 0 0 0
																}
															}
														}
													}
													JOINT Model41
													{
														OFFSET -9.72197 3.06459 -0.23877
														CHANNELS 3 Zrotation Xrotation Yrotation
														JOINT Model42
														{
															OFFSET -4.6113 0 0
															CHANNELS 3 Zrotation Xrotation Yrotation
															JOINT Model43
															{
																OFFSET -2.8969 0 0
																CHANNELS 3 Zrotation Xrotation Yrotation
																End Site
																{
																	OFFSET 0 0 0
																}
															}
														}
													}
													JOINT Model44
													{
														OFFSET -9.5443 0.745064 -0.58894
														CHANNELS 3 Zrotation Xrotation Yrotation
														JOINT Model45
														{
															OFFSET -5.33978 0 0
															CHANNELS 3 Zrotation Xrotation Yrotation
															JOINT Model46
															{
																OFFSET -3.03619 -1.52588e-005 0
																CHANNELS 3 Zrotation Xrotation Yrotation
																End Site
																{
																	OFFSET 0 0 0
																}
															}
														}
													}
													JOINT Model47
													{
														OFFSET -9.47759 -1.51286 -0.485123
														CHANNELS 3 Zrotation Xrotation Yrotation
														JOINT Model48
														{
															OFFSET -4.96136 -1.52588e-005 0
															CHANNELS 3 Zrotation Xrotation Yrotation
															JOINT Model49
															{
																OFFSET -2.51966 0 0
																CHANNELS 3 Zrotation Xrotation Yrotation
																End Site
																{
																	OFFSET 0 0 0
																}
															}
														}
													}
													JOINT Model50
													{
														OFFSET -9.34246 -3.34118 0.239277
														CHANNELS 3 Zrotation Xrotation Yrotation
														JOINT Model51
														{
															OFFSET -3.2826 -1.90735e-005 0
															CHANNELS 3 Zrotation Xrotation Yrotation
															JOINT Model52
															{
																OFFSET -2.1292 0 0
																CHANNELS 3 Zrotation Xrotation Yrotation
																End Site
																{
																	OFFSET 0 0 0
																}
															}
														}
													}
												}
											}
										}
									}
								}
							}
						}
					}
				}
			}
		}
	}
	JOINT Model53
	{
		OFFSET 4.38026 -2.14632 -1.11516
		CHANNELS 3 Zrotation Xrotation Yrotation
		JOINT Model54
		{
			OFFSET 0 0 4.94999
			CHANNELS 3 Zrotation Xrotation Yrotation
			JOINT Model55
			{
				OFFSET 18.5642 0 0
				CHANNELS 3 Zrotation Xrotation Yrotation
				JOINT Model56
				{
					OFFSET 21.2884 0 1.14441e-005
					CHANNELS 3 Zrotation Xrotation Yrotation
					JOINT Model57
					{
						OFFSET 30.261 0 0
						CHANNELS 3 Zrotation Xrotation Yrotation
						JOINT Model58
						{
							OFFSET 11.7259 0 0
							CHANNELS 3 Zrotation Xrotation Yrotation
							JOINT Model59
							{
								OFFSET 10.682 0 0
								CHANNELS 3 Zrotation Xrotation Yrotation
								End Site
								{
									OFFSET 0 0 0
								}
							}
						}
					}
				}
			}
		}
	}
	JOINT Model60
	{
		OFFSET -4.38026 -2.14632 -1.11516
		CHANNELS 3 Zrotation Xrotation Yrotation
		JOINT Model61
		{
			OFFSET 0 0 -4.94999
			CHANNELS 3 Zrotation Xrotation Yrotation
			JOINT Model62
			{
				OFFSET -18.5642 0 0
				CHANNELS 3 Zrotation Xrotation Yrotation
				JOINT Model63
				{
					OFFSET -21.2884 0 -1.14441e-005
					CHANNELS 3 Zrotation Xrotation Yrotation
					JOINT Model64
					{
						OFFSET -30.261 0 0
						CHANNELS 3 Zrotation Xrotation Yrotation
						JOINT Model65
						{
							OFFSET -11.7259 0 0
							CHANNELS 3 Zrotation Xrotation Yrotation
							JOINT Model66
							{
								OFFSET -10.682 0 0
								CHANNELS 3 Zrotation Xrotation Yrotation
								End Site
								{
									OFFSET 0 0 0
								}
							}
						}
					}
				}
			}
		}
	}
}
MOTION
Frames: 4
Frame Time: 0.033333
50.0776 125.465 47.48 -92.8242 -14.1424 -100.513 -180 -6.53164e-013 -90 6.8016 0.0615709 -3.63978 13.5934 -0.308626 -7.26126 13.5934 -0.308201 -7.26137 -28.4224 21.4389 2.0649 14.0663 21.0604 -1.30198 120.092 75.5343 58.4939 16.0023 -48.778 -11.6529 -167.277 84.4999 48.8109 172.664 -18.9968 37.8861 1.13548e-005 -18.8387 2.39214e-005 -144.704 0.883315 0.352026 3.24985e-007 2.15967 2.25998e-007 11.5489 4.59389 43.2707 -72.0648 39.0385 39.3397 33.3638 2.10362 14.835 0.588947 0.308273 6.35287 -99.6409 81.413 100.35 -0.0181409 2.77894e-005 -0.117315 -0.124139 0.00241113 -0.799296 -79.8382 79.5773 80.5374 -0.000225774 -0.000220913 2.22339e-005 -0.000956224 0.000122909 -2.72672e-005 -66.7416 80.4058 67.2171 -0.000437129 1.5956e-005 -2.72815e-005 -0.000136599 -0.000109276 -5.45883e-005 -6.42159 81.2158 8.01779 -0.000218559 1.69155e-005 0.00021218 0.000901594 -0.000184791 -0.000218512 -59.9282 75.5373 58.5147 32.4901 21.9772 -4.4055 -167.277 84.4999 48.8109 81.4666 -10.133 1.31721 8.11615e-006 -2.05908 2.87487e-005 -126.842 -0.392897 0.487401 8.90907e-008 -0.236594 -3.00702e-008 -0.0525891 0.00247544 -5.38853 -72.0648 39.0385 39.3397 33.3638 2.10361 14.835 0.588946 0.308273 6.35287 -99.6409 81.413 100.35 -0.0181409 3.0086e-005 -0.117315 -0.124139 0.00241114 -0.799296 -79.8382 79.5773 80.5374 -0.000260626 -0.000218558 2.35778e-005 -0.000956199 0.000123007 -2.73107e-005 -66.7416 80.4058 67.2171 -0.000437111 1.48892e-005 -2.73143e-005 -0.000136575 -0.000109272 -5.46328e-005 -6.42159 81.2158 8.01779 -0.000218544 1.95869e-005 0.0002123 0.000901613 -0.000191234 -0.000218561 0.00081454 0.56661 89.91 -28.9562 -18.3726 -33.6765 -4.97534e-006 -13.1371 -6.00713e-007 48.6719 12.9455 -0.00646708 4.50157e-007 19.3286 6.01719e-007 -52.6602 7.43916 -5.77231 -41.1287 -15.9996 -0.702419 -180 -0.566576 -90.09 -30.9267 -0.735438 -20.9489 2.72456e-006 7.40318 -1.38849e-007 66.5578 14.8914 -0.00768005 6.13251e-007 22.2249 1.41527e-006 -84.1558 13.4631 -6.45525 -35.4947 -3.62679e-007 -1.41612e-007 
50.2466 126.41 47.8214 -92.1395 -14.3068 -100.827 -180 -6.53164e-013 -90 6.62522 -0.00931144 -3.7202 13.2359 -0.447893 -7.41455 13.2359 -0.447467 -7.41465 -27.3103 21.2362 2.18812 13.5877 20.9286 -1.67076 120.092 75.5343 58.4939 16.0125 -48.7427 -11.6414 -167.277 84.4999 48.8109 173.763 -17.7726 37.3294 1.06471e-005 -17.2195 2.37024e-005 -143.844 1.69695 0.359601 3.20257e-007 3.35625 2.26225e-007 12.0465 4.71056 42.5927 -72.0648 39.0385 39.3397 33.3638 2.10362 14.835 0.588947 0.308273 6.35287 -99.6409 81.413 100.35 -0.0181409 2.77894e-005 -0.117315 -0.124139 0.00241113 -0.799296 -79.8382 79.5773 80.5374 -0.000225774 -0.000220913 2.22339e-005 -0.000956224 0.000122909 -2.72672e-005 -66.7416 80.4058 67.2171 -0.000437129 1.5956e-005 -2.72815e-005 -0.000136599 -0.000109276 -5.45883e-005 -6.42159 81.2158 8.01779 -0.000218559 1.69155e-005 0.00021218 0.000901594 -0.000184791 -0.000218512 -59.9282 75.5373 58.5147 32.6666 22.57 -4.45208 -167.277 84.4999 48.8109 83.3386 -11.0426 4.16109 7.38245e-006 -0.596739 2.87317e-005 -127.347 -0.109612 0.484167 8.93206e-008 0.201391 -3.00701e-008 -0.0525891 0.00247544 -5.38853 -72.0648 39.0385 39.3397 33.3638 2.10361 14.835 0.588946 0.308273 6.35287 -99.6409 81.413 100.35 -0.0181409 3.0086e-005 -0.117315 -0.124139 0.00241114 -0.799296 -79.8382 79.5773 80.5374 -0.000260626 -0.000218558 2.35778e-005 -0.000956199 0.000123007 -2.73107e-005 -66.7416 80.4058 67.2171 -0.000437111 1.48892e-005 -2.73143e-005 -0.000136575 -0.000109272 -5.46328e-005 -6.42159 81.2158 8.01779 -0.000218544 1.95869e-005 0.0002123 0.000901613 -0.000191234 -0.000218561 0.00081454 0.56661 89.91 -29.6809 -19.142 -33.9345 -4.99093e-006 -14.5763 -6.04447e-007 48.2936 13.7798 -0.00644294 4.36114e-007 20.5805 6.06512e-007 -48.8041 4.08521 -3.3754 -41.4692 -13.9628 -0.771136 -180 -0.566576 -90.09 -30.4199 -1.1814 -22.0649 2.72444e-006 7.35321 -1.38834e-007 64.0942 14.922 -0.00752704 6.1196e-007 22.2732 1.41576e-006 -83.4711 12.6177 -6.20266 -35.4947 3.54372e-008 -5.3332e-010 
50.4197 128.118 47.8484 -90.8873 -14.9623 -100.502 -180 -6.53164e-013 -90 6.27246 -0.0770782 -3.64302 12.5275 -0.551736 -7.25593 12.5275 -0.551309 -7.25603 -24.3719 22.0674 -0.217159 11.4127 20.8502 -0.14405 120.092 75.5343 58.4939 15.9039 -48.6865 -11.6639 -167.277 84.4999 48.8109 173.35 -18.0817 35.3491 1.04446e-005 -16.7507 2.36432e-005 -144.169 2.41643 0.357004 3.15949e-007 4.44434 2.26518e-007 13.4805 5.48574 44.1323 -72.0648 39.0385 39.3397 33.3638 2.10362 14.835 0.588947 0.308273 6.35287 -99.6409 81.413 100.35 -0.0181409 2.77894e-005 -0.117315 -0.124139 0.00241113 -0.799296 -79.8382 79.5773 80.5374 -0.000225774 -0.000220913 2.22339e-005 -0.000956224 0.000122909 -2.72672e-005 -66.7416 80.4058 67.2171 -0.000437129 1.5956e-005 -2.72815e-005 -0.000136599 -0.000109276 -5.45883e-005 -6.42159 81.2158 8.01779 -0.000218559 1.69155e-005 0.00021218 0.000901594 -0.000184791 -0.000218512 -59.9282 75.5373 58.5147 32.9977 23.5058 -4.54765 -167.277 84.4999 48.8109 86.2705 -12.5257 7.85006 6.80327e-006 0.558257 2.87315e-005 -127.381 0.102734 0.483963 8.94882e-008 0.520744 -3.00712e-008 -0.0525891 0.00247544 -5.38853 -72.0648 39.0385 39.3397 33.3638 2.10361 14.835 0.588946 0.308273 6.35287 -99.6409 81.413 100.35 -0.0181409 3.0086e-005 -0.117315 -0.124139 0.00241114 -0.799296 -79.8382 79.5773 80.5374 -0.000260626 -0.000218558 2.35778e-005 -0.000956199 0.000123007 -2.73107e-005 -66.7416 80.4058 67.2171 -0.000437111 1.48892e-005 -2.73143e-005 -0.000136575 -0.000109272 -5.46328e-005 -6.42159 81.2158 8.01779 -0.000218544 1.95869e-005 0.0002123 0.000901613 -0.000191234 -0.000218561 0.00081454 0.56661 89.91 -31.671 -20.226 -35.3027 -5.01393e-006 -16.6655 -6.10641e-007 47.4607 14.9111 -0.00642489 4.16689e-007 22.2788 6.1361e-007 -42.43 -0.13514 0.219461 -41.4445 -7.96902 -0.620128 -180 -0.566576 -90.09 -28.8652 -2.09954 -22.4646 2.72271e-006 6.64489 -1.38623e-007 59.4533 14.9068 -0.00718687 6.12433e-007 22.2555 1.41558e-006 -82.0129 11.7243 -5.98828 -35.4947 2.44269e-007 1.39155e-007 
50.4891 130.184 47.6173 -89.8825 -15.8496 -99.5675 -180 -6.53164e-013 -90 6.00917 -0.0694652 -3.39352 12.0038 -0.493919 -6.76122 12.0038 -0.493491 -6.76131 -20.7262 23.0004 -3.93026 8.40891 20.4864 2.04334 120.092 75.5343 58.4939 15.5658 -48.5397 -11.7397 -167.277 84.4999 48.8109 171.378 -19.6679 33.3196 1.0857e-005 -17.7028 2.37653e-005 -145.603 2.81594 0.344658 3.13413e-007 5.08321 2.26729e-007 14.5867 6.22482 46.0372 -72.0648 39.0385 39.3397 33.3638 2.10362 14.835 0.588947 0.308273 6.35287 -99.6409 81.413 100.35 -0.0181409 2.77894e-005 -0.117315 -0.124139 0.00241113 -0.799296 -79.8382 79.5773 80.5374 -0.000225774 -0.000220913 2.22339e-005 -0.000956224 0.000122909 -2.72672e-005 -66.7416 80.4058 67.2171 -0.000437129 1.5956e-005 -2.72815e-005 -0.000136599 -0.000109276 -5.45883e-005 -6.42159 81.2158 8.01779 -0.000218559 1.69155e-005 0.00021218 0.000901594 -0.000184791 -0.000218512 -59.9282 75.5373 58.5147 33.1293 23.9682 -4.58538 -167.277 84.4999 48.8109 89.3205 -13.9008 11.2614 6.44923e-006 1.26412 2.87372e-005 -127.281 0.222067 0.484611 8.95808e-008 0.697151 -3.00722e-008 -0.0525891 0.00247544 -5.38853 -72.0648 39.0385 39.3397 33.3638 2.10361 14.835 0.588946 0.308273 6.35287 -99.6409 81.413 100.35 -0.0181409 3.0086e-005 -0.117315 -0.124139 0.00241114 -0.799296 -79.8382 79.5773 80.5374 -0.000260626 -0.000218558 2.35778e-005 -0.000956199 0.000123007 -2.73107e-005 -66.7416 80.4058 67.2171 -0.000437111 1.48892e-005 -2.73143e-005 -0.000136575 -0.000109272 -5.46328e-005 -6.42159 81.2158 8.01779 -0.000218544 1.95869e-005 0.0002123 0.000901613 -0.000191234 -0.000218561 0.00081454 0.56661 89.91 -34.0273 -21.2225 -37.4405 -5.03544e-006 -18.5792 -6.17155e-007 46.4979 15.9848 -0.00640537 3.97808e-007 23.891 6.21014e-007 -36.3776 -2.51123 2.83536 -37.6074 -3.97455 0.0163589 -180 -0.566576 -90.09 -26.1516 -3.30282 -21.7896 2.71968e-006 5.39482 -1.38304e-007 53.3129 14.4313 -0.0066454 6.31168e-007 21.5502 1.40859e-006 -79.8977 10.234 -5.55229 -35.4947 -2.09396e-007 2.73981e-007 
